<svg width="100" height="98" viewBox="0 0 100 98" fill="none" xmlns="http://www.w3.org/2000/svg">
<path d="M20.499 15.2289H46.6686C47.4777 15.2289 48.1334 14.573 48.1334 13.764C48.1334 12.9551 47.4777 12.2992 46.6686 12.2992H20.499C19.6898 12.2992 19.0342 12.9551 19.0342 13.764C19.0342 14.573 19.6898 15.2289 20.499 15.2289Z" fill="#8031CD"/>
<path d="M27.6387 24.9958C27.6387 25.8048 28.2943 26.4607 29.1035 26.4607H55.207C56.0162 26.4607 56.6719 25.8048 56.6719 24.9958C56.6719 24.1869 56.0162 23.531 55.207 23.531H29.1035C28.2943 23.531 27.6387 24.1869 27.6387 24.9958Z" fill="#8031CD"/>
<path d="M11.9609 26.4607H24.1006C24.9098 26.4607 25.5654 25.8048 25.5654 24.9958C25.5654 24.1869 24.9098 23.531 24.1006 23.531H11.9609C11.1518 23.531 10.4961 24.1869 10.4961 24.9958C10.4961 25.8048 11.152 26.4607 11.9609 26.4607Z" fill="#8031CD"/>
<path d="M11.9609 33.5762H39.5451C40.3543 33.5762 41.01 32.9203 41.01 32.1113C41.01 31.3023 40.3543 30.6465 39.5451 30.6465H11.9609C11.1518 30.6465 10.4961 31.3023 10.4961 32.1113C10.4961 32.9203 11.152 33.5762 11.9609 33.5762Z" fill="#8031CD"/>
<path d="M11.9609 71.489H29.5389C30.348 71.489 31.0037 70.8332 31.0037 70.0242C31.0037 69.2152 30.348 68.5593 29.5389 68.5593H11.9609C11.1518 68.5593 10.4961 69.2152 10.4961 70.0242C10.4961 70.8332 11.152 71.489 11.9609 71.489Z" fill="#8031CD"/>
<path d="M99.2535 87.5873L95.527 83.8609C94.9551 83.2887 94.0275 83.2889 93.4555 83.8609C92.8834 84.433 92.8834 85.3605 93.4557 85.9324L96.9154 89.3922L92.3377 93.9699L79.41 81.0418L83.9877 76.4641L88.6223 81.0986C89.1945 81.6707 90.1219 81.6707 90.6939 81.0986C91.266 80.5266 91.266 79.599 90.6939 79.0271L85.7926 74.126C85.0248 73.3582 83.8865 73.1853 82.949 73.6021L78.8779 69.5309C84.1549 61.807 84.5033 51.7059 79.9258 43.6668C80.2328 43.5535 80.5584 43.4416 80.9064 43.3291C81.75 43.0566 82.3168 42.2771 82.3168 41.3893C82.3166 40.5016 81.7498 39.7223 80.9062 39.4498C77.001 38.1887 75.8133 37.001 74.5523 33.0955C74.2969 32.3047 73.5957 31.7574 72.7777 31.692V8.16172C72.7777 6.7543 71.6328 5.60918 70.2254 5.60918H67.1687V2.55254C67.1687 1.14512 66.0238 0 64.6164 0H2.55234C1.14492 0 0 1.14512 0 2.55254V86.527C0 87.9344 1.14492 89.0795 2.55234 89.0795H5.60898V92.1361C5.60898 93.5436 6.75391 94.6885 8.16133 94.6885H21.6797C22.4889 94.6885 23.1445 94.0326 23.1445 93.2236C23.1445 92.4146 22.4889 91.7588 21.6797 91.7588H8.53887V89.0795H64.616C66.0234 89.0795 67.1684 87.9344 67.1684 86.527V78.6658C68.0795 78.3305 68.9744 77.94 69.8479 77.493V91.7588H28.5156C27.7064 91.7588 27.0508 92.4146 27.0508 93.2236C27.0508 94.0326 27.7064 94.6885 28.5156 94.6885H70.2252C71.6326 94.6885 72.7775 93.5436 72.7775 92.1361V76.2336L76.5475 80.0035C76.1309 80.941 76.3037 82.0791 77.0713 82.8469L90.5326 96.3082C91.0303 96.8059 91.684 97.0547 92.3377 97.0547C92.9914 97.0547 93.6449 96.8059 94.1426 96.3082L99.2537 91.1971C100.249 90.202 100.249 88.5824 99.2535 87.5873ZM77.7689 41.3895C75.2445 42.5326 73.7555 44.0219 72.6127 46.5459C71.4695 44.0217 69.9805 42.5326 67.4565 41.3895C69.9807 40.2465 71.4697 38.7574 72.6127 36.233C73.7555 38.7574 75.2445 40.2463 77.7689 41.3895ZM64.3189 43.3291C68.224 44.5902 69.4117 45.7779 70.6729 49.683C70.9451 50.5264 71.7244 51.0932 72.6121 51.0934H72.6125C73.0113 51.0934 73.3877 50.9781 73.7068 50.7756C75.5236 56.2736 74.2543 62.5768 69.8883 66.9428C63.7217 73.1094 53.6873 73.1094 47.5209 66.9428C41.3543 60.776 41.3543 50.742 47.5209 44.5754C50.508 41.5881 54.4799 39.943 58.7045 39.943C60.2084 39.943 61.6791 40.1541 63.0855 40.5586C62.9719 40.8141 62.9086 41.0955 62.9086 41.3893C62.9086 42.277 63.4752 43.0566 64.3189 43.3291ZM64.2387 86.1498H2.92969V2.92969H64.2387V16.3014C64.2387 17.1104 64.8943 17.7662 65.7035 17.7662C66.5127 17.7662 67.1684 17.1104 67.1684 16.3014V8.53887H69.8479V34.0139C68.9785 33.5672 68.0844 33.173 67.1684 32.8352V23.1373C67.1684 22.3283 66.5127 21.6725 65.7035 21.6725C64.8943 21.6725 64.2387 22.3283 64.2387 23.1373V31.9625C62.4445 31.5484 60.5914 31.3322 58.7045 31.3322C57.9654 31.3322 57.2316 31.3666 56.5043 31.4311C56.2592 30.9648 55.7709 30.6465 55.2076 30.6465H44.7662C43.957 30.6465 43.3014 31.3023 43.3014 32.1113C43.3014 32.9203 43.957 33.5762 44.7662 33.5762H48.4508C46.183 34.626 44.0732 36.0305 42.1902 37.7617H11.9609C11.1518 37.7617 10.4961 38.4176 10.4961 39.2266C10.4961 40.0355 11.1518 40.6914 11.9609 40.6914H39.4783C37.8998 42.7025 36.6812 44.9055 35.8232 47.2139H11.9609C11.1518 47.2139 10.4961 47.8697 10.4961 48.6787C10.4961 49.4877 11.1518 50.1436 11.9609 50.1436H34.9397C34.6164 51.5217 34.4141 52.9223 34.3322 54.3291H11.9609C11.1518 54.3291 10.4961 54.985 10.4961 55.7939C10.4961 56.6029 11.1518 57.2588 11.9609 57.2588H34.3363C34.4221 58.6658 34.6281 60.0666 34.9557 61.4443H11.9609C11.1518 61.4443 10.4961 62.1002 10.4961 62.9092C10.4961 63.7182 11.1518 64.374 11.9609 64.374H35.8482C36.39 65.818 37.074 67.2199 37.8982 68.5596H34.5422C33.733 68.5596 33.0773 69.2154 33.0773 70.0244C33.0773 70.8334 33.733 71.4893 34.5422 71.4893H40.0174C40.4635 72.0184 40.9338 72.5336 41.432 73.0316C42.4152 74.0146 43.4627 74.8947 44.56 75.6748H11.9609C11.1518 75.6748 10.4961 76.3307 10.4961 77.1396C10.4961 77.9486 11.1518 78.6045 11.9609 78.6045H50.0602C52.8391 79.6514 55.7719 80.1748 58.7045 80.1748C60.5625 80.1748 62.4199 79.9621 64.2387 79.5418V86.1498ZM43.5037 70.96C35.1219 62.5781 35.1219 48.94 43.5037 40.5582C47.5641 36.4979 52.9625 34.2617 58.7045 34.2617C62.3182 34.2617 65.7955 35.1479 68.8891 36.8166C68.2598 37.592 67.4779 38.1594 66.4039 38.6576C64.015 37.5807 61.4033 37.0133 58.7045 37.0133C53.6973 37.0133 48.9898 38.9633 45.4492 42.5039C38.1404 49.8129 38.1404 61.7055 45.4492 69.0145C49.1037 72.6689 53.9041 74.4961 58.7045 74.4961C63.5049 74.4961 68.3053 72.6689 71.96 69.0145C77.8088 63.1652 78.9703 54.3838 75.4572 47.3623C75.9566 46.351 76.5318 45.61 77.3158 45.0088C82.0607 53.2279 80.9277 63.9375 73.9053 70.96C65.5236 79.3416 51.8854 79.3416 43.5037 70.96ZM74.81 74.1228C75.2076 73.7736 75.5975 73.4111 75.977 73.0316C76.3566 72.652 76.7158 72.2598 77.0654 71.8617L80.7559 75.5523L78.4977 77.8105L74.81 74.1228Z" fill="#8031CD"/>
<path d="M50.2842 48.1826C50.2842 48.9916 50.9398 49.6475 51.749 49.6475H65.6301C66.4393 49.6475 67.0949 48.9916 67.0949 48.1826C67.0949 47.3736 66.4393 46.7178 65.6301 46.7178H51.749C50.94 46.7178 50.2842 47.3736 50.2842 48.1826Z" fill="#8031CD"/>
<path d="M48.4199 53.6383C48.4199 54.4473 49.0756 55.1031 49.8848 55.1031H67.4951C68.3043 55.1031 68.96 54.4473 68.96 53.6383C68.96 52.8293 68.3043 52.1735 67.4951 52.1735H49.8848C49.0756 52.1735 48.4199 52.8293 48.4199 53.6383Z" fill="#8031CD"/>
<path d="M67.4951 57.6293H49.8848C49.0756 57.6293 48.4199 58.2851 48.4199 59.0941C48.4199 59.9031 49.0756 60.559 49.8848 60.559H67.4951C68.3043 60.559 68.96 59.9031 68.96 59.0941C68.96 58.2851 68.3041 57.6293 67.4951 57.6293Z" fill="#8031CD"/>
<path d="M63.1439 63.085H54.2354C53.4262 63.085 52.7705 63.7408 52.7705 64.5498C52.7705 65.3588 53.4262 66.0146 54.2354 66.0146H63.1439C63.9531 66.0146 64.6088 65.3588 64.6088 64.5498C64.6088 63.7408 63.9531 63.085 63.1439 63.085Z" fill="#8031CD"/>
<path d="M79.6826 32.9566H81.0457V34.3197C81.0457 35.1287 81.7014 35.7846 82.5105 35.7846C83.3197 35.7846 83.9754 35.1287 83.9754 34.3197V32.9566H85.3385C86.1477 32.9566 86.8033 32.3008 86.8033 31.4918C86.8033 30.6828 86.1477 30.027 85.3385 30.027H83.9754V28.6641C83.9754 27.8551 83.3197 27.1992 82.5105 27.1992C81.7014 27.1992 81.0457 27.8551 81.0457 28.6641V30.0271H79.6826C78.8734 30.0271 78.2178 30.683 78.2178 31.492C78.2178 32.301 78.8734 32.9566 79.6826 32.9566Z" fill="#8031CD"/>
</svg>
