<svg width="22" height="22" viewBox="0 0 22 22" fill="none" xmlns="http://www.w3.org/2000/svg">
<path d="M8.85135 14.4161C8.76208 14.0701 8.58169 13.7542 8.32897 13.5015C8.07625 13.2488 7.76042 13.0684 7.41435 12.9791L1.27935 11.3971C1.17468 11.3674 1.08256 11.3044 1.01697 11.2176C0.951369 11.1308 0.915878 11.0249 0.915878 10.9161C0.915878 10.8073 0.951369 10.7015 1.01697 10.6147C1.08256 10.5279 1.17468 10.4649 1.27935 10.4351L7.41435 8.85214C7.7603 8.76295 8.07604 8.58272 8.32876 8.33018C8.58147 8.07765 8.76192 7.76203 8.85135 7.41614L10.4334 1.28114C10.4628 1.17606 10.5257 1.08348 10.6127 1.01754C10.6996 0.95159 10.8057 0.915894 10.9149 0.915894C11.024 0.915894 11.1301 0.95159 11.217 1.01754C11.304 1.08348 11.3669 1.17606 11.3964 1.28114L12.9774 7.41614C13.0666 7.76221 13.247 8.07804 13.4997 8.33076C13.7525 8.58348 14.0683 8.76387 14.4144 8.85314L20.5494 10.4341C20.6549 10.4632 20.7479 10.5262 20.8142 10.6132C20.8805 10.7003 20.9164 10.8067 20.9164 10.9161C20.9164 11.0256 20.8805 11.132 20.8142 11.2191C20.7479 11.3061 20.6549 11.369 20.5494 11.3981L14.4144 12.9791C14.0683 13.0684 13.7525 13.2488 13.4997 13.5015C13.247 13.7542 13.0666 14.0701 12.9774 14.4161L11.3954 20.5511C11.3659 20.6562 11.303 20.7488 11.216 20.8147C11.1291 20.8807 11.023 20.9164 10.9139 20.9164C10.8047 20.9164 10.6986 20.8807 10.6117 20.8147C10.5247 20.7488 10.4618 20.6562 10.4324 20.5511L8.85135 14.4161Z" stroke="#D328EC" stroke-width="1.83175" stroke-linecap="round" stroke-linejoin="round"/>
</svg>
