<svg width="55" height="52" viewBox="0 0 55 52" fill="none" xmlns="http://www.w3.org/2000/svg">
<path d="M44.5411 43.1268C50.6272 38.8256 54.6093 31.7359 54.6093 23.7332C54.6093 10.6466 43.9626 0 30.8761 0C24.3446 0 18.1017 2.70223 13.6253 7.43801L5.95526 3.00973C5.63745 2.82609 5.24182 2.84508 4.94276 3.05777C4.64381 3.27059 4.49651 3.63832 4.56588 3.99867L5.54979 9.11086L0.630609 10.8149C0.283852 10.935 0.0390471 11.2465 0.00424238 11.6118C-0.0305623 11.9771 0.150961 12.3292 0.468773 12.5127L8.13248 16.9375C7.47635 19.135 7.14295 21.4171 7.14295 23.7332C7.14295 31.7359 11.125 38.8256 17.2112 43.1268L13.5631 50.4839C13.333 50.9477 13.5226 51.5102 13.9865 51.7403C14.1203 51.8066 14.2623 51.8381 14.4022 51.8381C14.7472 51.8381 15.0792 51.6469 15.2428 51.3169L18.795 44.1533C22.3362 46.2564 26.4673 47.4663 30.8762 47.4663C35.2852 47.4663 39.4163 46.2565 42.9574 44.1533L46.5095 51.3169C46.6731 51.6469 47.0051 51.8381 47.3501 51.8381C47.49 51.8381 47.6321 51.8066 47.7659 51.7403C48.2297 51.5102 48.4193 50.9477 48.1893 50.4839L44.5411 43.1268ZM6.93061 10.617C7.371 10.4644 7.63244 10.0116 7.54432 9.55394L6.79479 5.65957L14.2801 9.98121L15.1831 14.6729L10.6685 16.2368L3.18319 11.915L6.93061 10.617ZM16.6682 16.6127L20.2159 18.6611C19.4814 20.1987 19.0695 21.9186 19.0695 23.7333C19.0695 30.2435 24.3659 35.5399 30.876 35.5399C37.3862 35.5399 42.6826 30.2435 42.6826 23.7333C42.6826 17.223 37.3862 11.9266 30.876 11.9266C26.8497 11.9266 23.2882 13.953 21.1562 17.0391L17.6084 14.9907C20.4551 10.6849 25.339 7.83844 30.876 7.83844C39.6406 7.83844 46.771 14.9689 46.771 23.7334C46.771 32.4979 39.6406 39.6284 30.876 39.6284C22.1115 39.6284 14.9812 32.4979 14.9812 23.7334C14.9812 21.1747 15.5897 18.756 16.6682 16.6127ZM27.0015 23.7332C27.0015 23.3629 27.0549 23.0051 27.1523 22.6657L30.4074 24.545C30.555 24.6304 30.7162 24.6708 30.8753 24.6708C31.1993 24.6708 31.5144 24.5026 31.6881 24.2019C31.947 23.7536 31.7933 23.1802 31.345 22.9213L28.0916 21.043C28.7966 20.3135 29.784 19.8585 30.8762 19.8585C33.0127 19.8585 34.7508 21.5966 34.7508 23.733C34.7508 25.8694 33.0127 27.6075 30.8762 27.6075C28.7398 27.6075 27.0015 25.8696 27.0015 23.7332ZM38.183 30.4512C37.1005 29.4605 35.8321 28.7044 34.4626 28.2221C35.7797 27.1676 36.6257 25.5478 36.6257 23.7333C36.6257 20.5629 34.0464 17.9837 30.8761 17.9837C29.089 17.9837 27.4899 18.8034 26.4346 20.0865L22.7877 17.981C24.5901 15.4542 27.5428 13.8018 30.8761 13.8018C36.3524 13.8018 40.8078 18.2571 40.8078 23.7334C40.8078 26.3218 39.8113 28.6815 38.183 30.4512ZM36.7813 31.7129C35.1296 32.9385 33.0863 33.6648 30.8761 33.6648C28.666 33.6648 26.6227 32.9385 24.9709 31.7129C26.5946 30.2863 28.6969 29.4827 30.8761 29.4827C33.0552 29.4827 35.1577 30.2863 36.7813 31.7129ZM25.4953 21.7091C25.2576 22.3391 25.1264 23.021 25.1264 23.7332C25.1264 25.5477 25.9723 27.1675 27.2895 28.222C25.9199 28.7043 24.6516 29.4604 23.5691 30.4511C21.9408 28.6814 20.9445 26.3217 20.9445 23.7332C20.9445 22.2598 21.2694 20.8617 21.8475 19.603L25.4953 21.7091ZM9.01795 23.7332C9.01795 21.7498 9.28315 19.7941 9.80545 17.9034L10.1021 18.0746C10.2461 18.1579 10.408 18.2003 10.5708 18.2003C10.674 18.2003 10.7779 18.1832 10.8776 18.1487L14.4717 16.9036C13.5926 19.0073 13.1062 21.3144 13.1062 23.7332C13.1062 33.5314 21.0777 41.5031 30.876 41.5031C40.6744 41.5031 48.646 33.5316 48.646 23.7332C48.646 13.9348 40.6744 5.9632 30.8761 5.9632C25.1291 5.9632 20.0115 8.70633 16.7614 12.9512L16.0406 9.20625C15.9892 8.93918 15.8243 8.7075 15.5888 8.57156L15.2974 8.4034C19.3962 4.2409 25.0102 1.875 30.8761 1.875C42.9287 1.875 52.7343 11.6805 52.7343 23.7332C52.7343 35.7858 42.9287 45.5912 30.8761 45.5912C18.8235 45.5913 9.01795 35.7858 9.01795 23.7332Z" fill="#FCFCFC"/>
</svg>
